G75*
%MOIN*%
%OFA0B0*%
%FSLAX24Y24*%
%IPPOS*%
%LPD*%
%AMOC8*
5,1,8,0,0,1.08239X$1,22.5*
%
%ADD10R,0.0217X0.0472*%
%ADD11R,0.0709X0.0630*%
%ADD12R,0.0512X0.0591*%
%ADD13R,0.0630X0.0512*%
%ADD14R,0.0630X0.0551*%
%ADD15R,0.0472X0.0472*%
%ADD16R,0.0512X0.0630*%
%ADD17OC8,0.0760*%
%ADD18R,0.0945X0.0945*%
%ADD19R,0.0630X0.0945*%
%ADD20R,0.0591X0.0512*%
%ADD21R,0.2953X0.0945*%
%ADD22R,0.0315X0.0236*%
%ADD23R,0.0300X0.0157*%
%ADD24R,0.0295X0.0118*%
%ADD25R,0.0827X0.0591*%
%ADD26R,0.0512X0.0160*%
%ADD27OC8,0.1400*%
%ADD28R,0.0110X0.0169*%
%ADD29C,0.0240*%
%ADD30C,0.0297*%
%ADD31C,0.0120*%
%ADD32C,0.0320*%
%ADD33C,0.0500*%
%ADD34C,0.0180*%
%ADD35C,0.0160*%
%ADD36C,0.0400*%
%ADD37C,0.0200*%
%ADD38C,0.0100*%
%ADD39C,0.0560*%
D10*
X011851Y003897D03*
X012225Y003897D03*
X012599Y003897D03*
X012599Y004920D03*
X011851Y004920D03*
D11*
X006631Y006263D03*
X005756Y006263D03*
X004881Y006263D03*
X004881Y007366D03*
X005756Y007366D03*
X006631Y007366D03*
D12*
X002099Y005721D03*
X001351Y005721D03*
X011601Y005721D03*
X012349Y005721D03*
X015601Y007158D03*
X016349Y007158D03*
X022195Y004440D03*
X022943Y004440D03*
X022943Y003627D03*
X022195Y003627D03*
X025726Y007033D03*
X026474Y007033D03*
D13*
X016475Y004782D03*
X016475Y004034D03*
X013288Y005253D03*
X013288Y006001D03*
X004850Y003157D03*
X003975Y003157D03*
X003100Y003157D03*
X002225Y003157D03*
X002225Y002409D03*
X003100Y002409D03*
X003975Y002409D03*
X004850Y002409D03*
X025225Y002409D03*
X026225Y002409D03*
X026225Y003157D03*
X025225Y003157D03*
D14*
X013066Y002658D03*
X011884Y002658D03*
D15*
X011687Y007158D03*
X012513Y007158D03*
D16*
X013351Y007158D03*
X014099Y007158D03*
X015601Y006158D03*
X016349Y006158D03*
X023976Y007158D03*
X024724Y007158D03*
X026476Y005658D03*
X027224Y005658D03*
X024974Y004690D03*
X024226Y004690D03*
X024226Y003877D03*
X024974Y003877D03*
X006099Y004658D03*
X005351Y004658D03*
X004349Y004658D03*
X003601Y004658D03*
D17*
X003350Y001283D03*
X002350Y001283D03*
X005350Y001283D03*
X006350Y001283D03*
X008350Y001283D03*
X010350Y001283D03*
X012350Y001283D03*
X014350Y001283D03*
X015350Y001283D03*
X016350Y001283D03*
X018350Y001283D03*
X019350Y001283D03*
X020350Y001283D03*
X022350Y001283D03*
X023350Y001283D03*
X025350Y001283D03*
X026350Y001283D03*
D18*
X021975Y005292D03*
X021975Y007024D03*
D19*
X021728Y002690D03*
X022909Y002690D03*
D20*
X024288Y002409D03*
X024288Y003157D03*
X020475Y003220D03*
X019600Y003220D03*
X018725Y003220D03*
X017850Y003220D03*
X017850Y002472D03*
X018725Y002472D03*
X019600Y002472D03*
X020475Y002472D03*
X010444Y002534D03*
X009569Y002534D03*
X008694Y002534D03*
X007819Y002534D03*
X007819Y003282D03*
X008694Y003282D03*
X009569Y003282D03*
X010444Y003282D03*
X005725Y003157D03*
X005725Y002409D03*
D21*
X009100Y004563D03*
X009100Y007004D03*
X019100Y007051D03*
X019100Y004610D03*
D22*
X003592Y006441D03*
X002608Y006441D03*
X002608Y006815D03*
X003592Y006815D03*
X003592Y007189D03*
X002608Y007189D03*
D23*
X014610Y004782D03*
X014610Y004408D03*
X015590Y004408D03*
X015590Y004782D03*
X015590Y004034D03*
X014610Y004034D03*
D24*
X014448Y003042D03*
X014448Y002786D03*
X014448Y002530D03*
X014448Y002274D03*
X016752Y002274D03*
X016752Y002530D03*
X016752Y002786D03*
X016752Y003042D03*
D25*
X006725Y003617D03*
X006725Y002200D03*
D26*
X023434Y005524D03*
X023434Y005780D03*
X023434Y006036D03*
X023434Y006292D03*
X025266Y006292D03*
X025266Y006036D03*
X025266Y005780D03*
X025266Y005524D03*
D27*
X026350Y004283D03*
X002350Y004283D03*
D28*
X012500Y006221D03*
X012700Y006221D03*
D29*
X000380Y005530D02*
X000380Y000563D01*
X015600Y000563D01*
X015600Y000685D01*
X015599Y000683D01*
X015350Y000683D01*
X015350Y001283D01*
X015350Y001283D01*
X015350Y000683D01*
X015101Y000683D01*
X014892Y000892D01*
X014623Y000623D01*
X014077Y000623D01*
X013690Y001010D01*
X013690Y001321D01*
X013418Y001593D01*
X012973Y001593D01*
X013010Y001557D01*
X013010Y001010D01*
X012623Y000623D01*
X012077Y000623D01*
X011690Y001010D01*
X011690Y001557D01*
X011822Y001689D01*
X011601Y001910D01*
X011555Y001956D01*
X011549Y001888D01*
X011549Y001813D01*
X011541Y001793D01*
X011539Y001772D01*
X011504Y001706D01*
X011476Y001636D01*
X011461Y001621D01*
X011451Y001603D01*
X011394Y001554D01*
X011341Y001501D01*
X011321Y001493D01*
X011010Y001231D01*
X011010Y001010D01*
X010623Y000623D01*
X010077Y000623D01*
X009690Y001010D01*
X009690Y001557D01*
X010077Y001943D01*
X010365Y001943D01*
X010502Y002058D01*
X010452Y002058D01*
X010452Y002526D01*
X010436Y002526D01*
X010436Y002058D01*
X010120Y002058D01*
X010064Y002073D01*
X010013Y002102D01*
X010006Y002110D01*
X009999Y002102D01*
X009949Y002073D01*
X009893Y002058D01*
X009577Y002058D01*
X009577Y002526D01*
X009561Y002526D01*
X009561Y002058D01*
X009245Y002058D01*
X009189Y002073D01*
X009138Y002102D01*
X009131Y002110D01*
X009124Y002102D01*
X009074Y002073D01*
X009018Y002058D01*
X008702Y002058D01*
X008702Y002526D01*
X008686Y002526D01*
X008686Y002058D01*
X008370Y002058D01*
X008314Y002073D01*
X008263Y002102D01*
X008256Y002110D01*
X008249Y002102D01*
X008199Y002073D01*
X008143Y002058D01*
X007827Y002058D01*
X007827Y002526D01*
X007811Y002526D01*
X007811Y002058D01*
X007495Y002058D01*
X007439Y002073D01*
X007418Y002085D01*
X007418Y001849D01*
X007376Y001746D01*
X007297Y001667D01*
X007194Y001624D01*
X007165Y001624D01*
X007165Y001571D01*
X007098Y001409D01*
X007010Y001321D01*
X007010Y001010D01*
X006623Y000623D01*
X006077Y000623D01*
X005857Y000843D01*
X005843Y000843D01*
X005623Y000623D01*
X005077Y000623D01*
X004690Y001010D01*
X004690Y001557D01*
X005007Y001873D01*
X004479Y001873D01*
X004413Y001901D01*
X004346Y001873D01*
X003608Y001873D01*
X003950Y001532D01*
X003950Y001283D01*
X003350Y001283D01*
X003350Y000683D01*
X003599Y000683D01*
X003950Y001035D01*
X003950Y001283D01*
X003350Y001283D01*
X003350Y001283D01*
X003350Y000683D01*
X003101Y000683D01*
X002850Y000935D01*
X002599Y000683D01*
X002350Y000683D01*
X002350Y001283D01*
X002350Y001283D01*
X002350Y000683D01*
X002101Y000683D01*
X001750Y001035D01*
X001750Y001283D01*
X002350Y001283D01*
X002350Y001283D01*
X002350Y001283D01*
X002950Y001283D01*
X003350Y001283D01*
X003350Y001283D01*
X003350Y001283D01*
X002350Y001283D01*
X001750Y001283D01*
X001750Y001532D01*
X002101Y001883D01*
X002350Y001883D01*
X002350Y001283D01*
X002350Y001283D01*
X002350Y001883D01*
X002599Y001883D01*
X002850Y001632D01*
X003101Y001883D01*
X003350Y001883D01*
X003350Y001283D01*
X003350Y001283D01*
X003350Y001883D01*
X003580Y001883D01*
X003501Y001916D01*
X003476Y001942D01*
X003444Y001933D01*
X003108Y001933D01*
X003108Y002401D01*
X003092Y002401D01*
X003092Y001933D01*
X002756Y001933D01*
X002700Y001948D01*
X002663Y001970D01*
X002625Y001948D01*
X002569Y001933D01*
X002233Y001933D01*
X002233Y002401D01*
X002217Y002401D01*
X002217Y001933D01*
X001881Y001933D01*
X001825Y001948D01*
X001775Y001977D01*
X001734Y002018D01*
X001705Y002068D01*
X001690Y002124D01*
X001690Y002401D01*
X002217Y002401D01*
X002217Y002417D01*
X001690Y002417D01*
X001690Y002694D01*
X001697Y002719D01*
X001673Y002743D01*
X001630Y002846D01*
X001630Y002869D01*
X001545Y002954D01*
X001545Y002954D01*
X001146Y003353D01*
X001045Y003454D01*
X000990Y003587D01*
X000990Y004824D01*
X001045Y004956D01*
X001214Y005126D01*
X001194Y005146D01*
X001039Y005146D01*
X000936Y005188D01*
X000858Y005267D01*
X000815Y005370D01*
X000815Y006072D01*
X000858Y006175D01*
X000936Y006253D01*
X000990Y006276D01*
X000990Y006667D01*
X001045Y006800D01*
X001146Y006901D01*
X001638Y007393D01*
X001739Y007494D01*
X001871Y007549D01*
X001926Y007549D01*
X002099Y007670D01*
X002126Y007697D01*
X002154Y007708D01*
X002179Y007726D01*
X002216Y007734D01*
X002251Y007748D01*
X002282Y007748D01*
X002311Y007755D01*
X002349Y007748D01*
X002855Y007748D01*
X002980Y007697D01*
X003076Y007601D01*
X003127Y007476D01*
X003127Y007184D01*
X003202Y007154D01*
X003215Y007141D01*
X003215Y007189D01*
X003321Y007189D01*
X003321Y007189D01*
X003215Y007189D01*
X003215Y007336D01*
X003230Y007392D01*
X003259Y007442D01*
X003300Y007483D01*
X003350Y007512D01*
X003406Y007527D01*
X003592Y007527D01*
X003592Y007215D01*
X003592Y007215D01*
X003592Y007527D01*
X003779Y007527D01*
X003835Y007512D01*
X003885Y007483D01*
X003926Y007442D01*
X003947Y007405D01*
X004307Y007405D01*
X004307Y007710D01*
X004322Y007766D01*
X004349Y007812D01*
X002775Y007812D01*
X002773Y007811D01*
X002719Y007812D01*
X002717Y007812D01*
X002459Y007801D01*
X001953Y007692D01*
X001485Y007473D01*
X001076Y007155D01*
X000749Y006755D01*
X000519Y006291D01*
X000398Y005788D01*
X000380Y005530D01*
X000815Y005530D01*
X000815Y005769D02*
X000396Y005769D01*
X000450Y006007D02*
X000815Y006007D01*
X000929Y006246D02*
X000508Y006246D01*
X000615Y006484D02*
X000990Y006484D01*
X001013Y006723D02*
X000733Y006723D01*
X000918Y006961D02*
X001206Y006961D01*
X001134Y007200D02*
X001445Y007200D01*
X001440Y007438D02*
X001683Y007438D01*
X001922Y007677D02*
X002106Y007677D01*
X003000Y007677D02*
X004307Y007677D01*
X004307Y007438D02*
X003928Y007438D01*
X003592Y007438D02*
X003592Y007438D01*
X003257Y007438D02*
X003127Y007438D01*
X003127Y007200D02*
X003215Y007200D01*
X004006Y006955D02*
X003975Y006815D01*
X003592Y006815D01*
X003100Y006690D02*
X003100Y005658D01*
X003475Y005283D01*
X004850Y005283D01*
X006694Y005283D01*
X006756Y005221D01*
X007707Y005315D02*
X007732Y005341D01*
X007784Y005466D01*
X007784Y005600D01*
X008886Y005600D01*
X009011Y005651D01*
X009107Y005747D01*
X009159Y005872D01*
X009159Y006251D01*
X010632Y006251D01*
X010735Y006294D01*
X010814Y006373D01*
X010856Y006476D01*
X010856Y007532D01*
X010814Y007635D01*
X010735Y007714D01*
X010632Y007756D01*
X007568Y007756D01*
X007465Y007714D01*
X007386Y007635D01*
X007344Y007532D01*
X007344Y007195D01*
X007206Y007195D01*
X007206Y007328D01*
X006669Y007328D01*
X006669Y007403D01*
X007206Y007403D01*
X007206Y007710D01*
X007191Y007766D01*
X007164Y007812D01*
X015600Y007812D01*
X015600Y007166D01*
X015593Y007166D01*
X015593Y007150D01*
X015125Y007150D01*
X015125Y006834D01*
X015140Y006778D01*
X015169Y006728D01*
X015186Y006711D01*
X015108Y006632D01*
X015065Y006529D01*
X015065Y006132D01*
X014771Y005838D01*
X014670Y005736D01*
X014615Y005604D01*
X014615Y005081D01*
X014610Y005081D01*
X014610Y004782D01*
X014240Y004782D01*
X014240Y004675D01*
X014242Y004666D01*
X014223Y004646D01*
X014180Y004543D01*
X014180Y004274D01*
X014202Y004221D01*
X014180Y004169D01*
X014180Y003900D01*
X014223Y003797D01*
X014301Y003718D01*
X014404Y003676D01*
X014816Y003676D01*
X014865Y003696D01*
X014865Y003589D01*
X014588Y003382D01*
X014381Y003382D01*
X014379Y003381D01*
X014245Y003381D01*
X014142Y003339D01*
X014063Y003260D01*
X014021Y003157D01*
X014021Y002927D01*
X014063Y002825D01*
X014081Y002807D01*
X014081Y002786D01*
X014081Y002698D01*
X014091Y002658D01*
X014081Y002618D01*
X014081Y002530D01*
X014081Y002510D01*
X014063Y002492D01*
X014021Y002389D01*
X014021Y002351D01*
X014020Y002349D01*
X014020Y002236D01*
X013973Y002283D01*
X013849Y002406D01*
X013688Y002473D01*
X013601Y002473D01*
X013601Y002641D01*
X013083Y002641D01*
X013083Y002676D01*
X013048Y002676D01*
X013048Y003154D01*
X012722Y003154D01*
X012666Y003139D01*
X012616Y003110D01*
X012575Y003069D01*
X012546Y003019D01*
X012531Y002963D01*
X012531Y002676D01*
X013048Y002676D01*
X013048Y002641D01*
X012531Y002641D01*
X012531Y002473D01*
X012479Y002473D01*
X012479Y002990D01*
X012437Y003093D01*
X012358Y003171D01*
X012315Y003189D01*
X012315Y003388D01*
X012407Y003350D01*
X013668Y003350D01*
X013793Y003401D01*
X013888Y003497D01*
X013940Y003622D01*
X013940Y004268D01*
X014013Y004341D01*
X014065Y004466D01*
X014065Y004614D01*
X014085Y004634D01*
X014186Y004736D01*
X014240Y004865D01*
X014240Y004782D01*
X014610Y004782D01*
X014610Y004782D01*
X014610Y005081D01*
X014431Y005081D01*
X014375Y005066D01*
X014325Y005037D01*
X014284Y004996D01*
X014255Y004946D01*
X014241Y004895D01*
X014241Y006539D01*
X014265Y006563D01*
X014411Y006563D01*
X014514Y006606D01*
X014592Y006685D01*
X014635Y006788D01*
X014635Y007529D01*
X014592Y007632D01*
X014514Y007711D01*
X014411Y007753D01*
X013787Y007753D01*
X013725Y007727D01*
X013663Y007753D01*
X013039Y007753D01*
X012936Y007711D01*
X012873Y007647D01*
X012805Y007675D01*
X012221Y007675D01*
X012119Y007632D01*
X012100Y007613D01*
X012081Y007632D01*
X011979Y007675D01*
X011395Y007675D01*
X011292Y007632D01*
X011213Y007553D01*
X011170Y007450D01*
X011170Y006866D01*
X011213Y006764D01*
X011292Y006685D01*
X011327Y006670D01*
X011327Y006296D01*
X011289Y006296D01*
X011186Y006253D01*
X011108Y006175D01*
X011065Y006072D01*
X011065Y005998D01*
X010532Y005998D01*
X010407Y005947D01*
X010312Y005851D01*
X010260Y005726D01*
X010260Y005315D01*
X007707Y005315D01*
X007784Y005530D02*
X010260Y005530D01*
X010278Y005769D02*
X009116Y005769D01*
X009159Y006007D02*
X011065Y006007D01*
X011179Y006246D02*
X009159Y006246D01*
X010856Y006484D02*
X011327Y006484D01*
X011254Y006723D02*
X010856Y006723D01*
X010856Y006961D02*
X011170Y006961D01*
X011170Y007200D02*
X010856Y007200D01*
X010856Y007438D02*
X011170Y007438D01*
X010772Y007677D02*
X012903Y007677D01*
X014547Y007677D02*
X015600Y007677D01*
X015593Y007674D02*
X015316Y007674D01*
X015260Y007659D01*
X015210Y007630D01*
X015169Y007589D01*
X015140Y007539D01*
X015125Y007483D01*
X015125Y007166D01*
X015593Y007166D01*
X015593Y007674D01*
X016100Y007734D02*
X016100Y007812D01*
X026145Y007812D01*
X026148Y007811D01*
X026200Y007812D01*
X026205Y007812D01*
X026436Y007804D01*
X026891Y007709D01*
X027314Y007516D01*
X027683Y007233D01*
X027980Y006876D01*
X028190Y006461D01*
X028302Y006010D01*
X028320Y005779D01*
X028315Y000563D01*
X016100Y000563D01*
X016100Y000685D01*
X016101Y000683D01*
X016350Y000683D01*
X016599Y000683D01*
X016950Y001035D01*
X016950Y001283D01*
X016350Y001283D01*
X016350Y000683D01*
X016350Y001283D01*
X016350Y001283D01*
X016350Y001283D01*
X016950Y001283D01*
X016950Y001532D01*
X016796Y001686D01*
X016870Y001759D01*
X016924Y001891D01*
X016979Y001945D01*
X017058Y001978D01*
X017137Y002057D01*
X017179Y002160D01*
X017179Y002216D01*
X017180Y002218D01*
X017180Y002349D01*
X017179Y002351D01*
X017179Y002389D01*
X017137Y002492D01*
X017119Y002510D01*
X017119Y002530D01*
X017098Y002530D01*
X017119Y002530D01*
X017119Y002618D01*
X017109Y002658D01*
X017119Y002698D01*
X017119Y002786D01*
X017098Y002786D01*
X017098Y002786D01*
X017119Y002786D01*
X017119Y002807D01*
X017137Y002825D01*
X017179Y002927D01*
X017179Y003157D01*
X017137Y003260D01*
X017058Y003339D01*
X016955Y003381D01*
X016821Y003381D01*
X016819Y003382D01*
X016540Y003382D01*
X016529Y003386D01*
X016473Y003382D01*
X016449Y003382D01*
X016422Y003393D01*
X016124Y003393D01*
X016100Y003417D01*
X016100Y003567D01*
X016131Y003558D01*
X016467Y003558D01*
X016467Y004026D01*
X016483Y004026D01*
X016483Y003558D01*
X016819Y003558D01*
X016875Y003573D01*
X016925Y003602D01*
X016966Y003643D01*
X016995Y003693D01*
X017010Y003749D01*
X017010Y004026D01*
X016483Y004026D01*
X016483Y004042D01*
X017010Y004042D01*
X017010Y004319D01*
X017003Y004344D01*
X017027Y004368D01*
X017070Y004471D01*
X017070Y005094D01*
X017027Y005197D01*
X016949Y005276D01*
X016846Y005318D01*
X016104Y005318D01*
X016100Y005316D01*
X016100Y005563D01*
X016661Y005563D01*
X016678Y005571D01*
X017344Y004906D01*
X017344Y004082D01*
X017360Y004042D01*
X017360Y004041D01*
X017365Y003986D01*
X017365Y003930D01*
X017371Y003915D01*
X017373Y003898D01*
X017385Y003875D01*
X017385Y003702D01*
X017317Y003634D01*
X017275Y003531D01*
X017275Y002908D01*
X017317Y002805D01*
X017341Y002781D01*
X017335Y002757D01*
X017335Y002480D01*
X017842Y002480D01*
X017842Y002464D01*
X017335Y002464D01*
X017335Y002187D01*
X017350Y002131D01*
X017379Y002081D01*
X017420Y002040D01*
X017470Y002011D01*
X017526Y001996D01*
X017842Y001996D01*
X017842Y002464D01*
X017858Y002464D01*
X017858Y002480D01*
X018717Y002480D01*
X018717Y002464D01*
X018365Y002464D01*
X017858Y002464D01*
X017858Y001996D01*
X018174Y001996D01*
X018230Y002011D01*
X018280Y002040D01*
X018288Y002047D01*
X018295Y002040D01*
X018345Y002011D01*
X018401Y001996D01*
X018717Y001996D01*
X018717Y002464D01*
X018733Y002464D01*
X018733Y002480D01*
X019085Y002480D01*
X019592Y002480D01*
X019592Y002464D01*
X018733Y002464D01*
X018733Y001996D01*
X019049Y001996D01*
X019105Y002011D01*
X019155Y002040D01*
X019162Y002047D01*
X019170Y002040D01*
X019220Y002011D01*
X019276Y001996D01*
X019592Y001996D01*
X019592Y002464D01*
X019608Y002464D01*
X019608Y002480D01*
X020467Y002480D01*
X020467Y002464D01*
X020115Y002464D01*
X019608Y002464D01*
X019608Y001996D01*
X019924Y001996D01*
X019980Y002011D01*
X020030Y002040D01*
X020038Y002047D01*
X020045Y002040D01*
X020095Y002011D01*
X020151Y001996D01*
X020467Y001996D01*
X020467Y002464D01*
X020483Y002464D01*
X020483Y002480D01*
X020990Y002480D01*
X020990Y002605D01*
X021092Y002605D01*
X021133Y002622D01*
X021133Y002161D01*
X021176Y002059D01*
X021198Y002036D01*
X021198Y001675D01*
X021279Y001480D01*
X021690Y001069D01*
X021690Y001010D01*
X022077Y000623D01*
X022623Y000623D01*
X022723Y000723D01*
X022977Y000723D01*
X023077Y000623D01*
X023623Y000623D01*
X024010Y001010D01*
X024010Y001557D01*
X023623Y001943D01*
X023077Y001943D01*
X022977Y001843D01*
X022723Y001843D01*
X022623Y001943D01*
X022315Y001943D01*
X022258Y002000D01*
X022258Y002036D01*
X022281Y002059D01*
X022323Y002161D01*
X022323Y003052D01*
X022374Y003052D01*
X022374Y002727D01*
X022872Y002727D01*
X022872Y003112D01*
X022935Y003112D01*
X022935Y003619D01*
X022951Y003619D01*
X022951Y003635D01*
X023419Y003635D01*
X023419Y003951D01*
X023404Y004007D01*
X023389Y004033D01*
X023404Y004059D01*
X023419Y004115D01*
X023419Y004432D01*
X022951Y004432D01*
X022951Y004448D01*
X022935Y004448D01*
X022935Y004955D01*
X022727Y004955D01*
X022727Y005633D01*
X022903Y005633D01*
X022941Y005542D01*
X022958Y005524D01*
X022958Y005416D01*
X022973Y005360D01*
X023002Y005309D01*
X023043Y005268D01*
X023093Y005239D01*
X023149Y005224D01*
X023434Y005224D01*
X023719Y005224D01*
X023775Y005239D01*
X023825Y005268D01*
X023866Y005309D01*
X023895Y005360D01*
X023910Y005416D01*
X023910Y005420D01*
X024385Y005420D01*
X024385Y005225D01*
X024234Y005225D01*
X024234Y004698D01*
X024218Y004698D01*
X024218Y005225D01*
X023941Y005225D01*
X023885Y005210D01*
X023835Y005181D01*
X023794Y005140D01*
X023765Y005089D01*
X023750Y005034D01*
X023750Y004698D01*
X024218Y004698D01*
X024218Y004682D01*
X023750Y004682D01*
X023750Y004346D01*
X023765Y004290D01*
X023769Y004283D01*
X023765Y004277D01*
X023750Y004221D01*
X023750Y003885D01*
X024218Y003885D01*
X024218Y003869D01*
X023750Y003869D01*
X023750Y003560D01*
X023712Y003469D01*
X023712Y002846D01*
X023738Y002783D01*
X023712Y002721D01*
X023712Y002098D01*
X023755Y001995D01*
X023834Y001916D01*
X023937Y001873D01*
X024280Y001873D01*
X024265Y001837D01*
X024265Y001667D01*
X024330Y001509D01*
X024451Y001389D01*
X024608Y001323D01*
X024750Y001323D01*
X024750Y001283D01*
X024750Y001035D01*
X025101Y000683D01*
X025350Y000683D01*
X025599Y000683D01*
X025850Y000935D01*
X026101Y000683D01*
X026350Y000683D01*
X026599Y000683D01*
X026950Y001035D01*
X026950Y001283D01*
X026350Y001283D01*
X026350Y000683D01*
X026350Y001283D01*
X026350Y001283D01*
X025350Y001283D01*
X025350Y000683D01*
X025350Y001283D01*
X025350Y001283D01*
X025350Y001283D01*
X024750Y001283D01*
X025350Y001283D01*
X025350Y001283D01*
X025950Y001283D01*
X026350Y001283D01*
X026350Y001283D01*
X026350Y001283D01*
X026950Y001283D01*
X026950Y001532D01*
X026605Y001877D01*
X026699Y001916D01*
X026777Y001995D01*
X026820Y002098D01*
X026820Y002721D01*
X026794Y002783D01*
X026820Y002846D01*
X026820Y003367D01*
X027330Y003877D01*
X027330Y004689D01*
X026956Y005063D01*
X027536Y005063D01*
X027639Y005106D01*
X027717Y005185D01*
X027760Y005288D01*
X027760Y006029D01*
X027717Y006132D01*
X027639Y006211D01*
X027536Y006253D01*
X027389Y006253D01*
X027054Y006589D01*
X026983Y006618D01*
X027010Y006682D01*
X027010Y007384D01*
X026967Y007487D01*
X026889Y007566D01*
X026786Y007609D01*
X026162Y007609D01*
X026060Y007566D01*
X026036Y007542D01*
X026011Y007549D01*
X025734Y007549D01*
X025734Y007041D01*
X025718Y007041D01*
X025718Y007549D01*
X025441Y007549D01*
X025385Y007534D01*
X025335Y007505D01*
X025294Y007464D01*
X025265Y007414D01*
X025260Y007394D01*
X025260Y007529D01*
X025217Y007632D01*
X025139Y007711D01*
X025036Y007753D01*
X024412Y007753D01*
X024350Y007727D01*
X024288Y007753D01*
X023664Y007753D01*
X023561Y007711D01*
X023483Y007632D01*
X023479Y007623D01*
X022698Y007623D01*
X022685Y007656D01*
X022606Y007734D01*
X022503Y007777D01*
X021447Y007777D01*
X021344Y007734D01*
X021265Y007656D01*
X021246Y007608D01*
X021157Y007572D01*
X021062Y007476D01*
X021035Y007411D01*
X020856Y007411D01*
X020856Y007579D01*
X020814Y007682D01*
X020735Y007760D01*
X020632Y007803D01*
X017568Y007803D01*
X017465Y007760D01*
X017386Y007682D01*
X017344Y007579D01*
X017344Y006523D01*
X017386Y006420D01*
X017465Y006341D01*
X017568Y006298D01*
X020632Y006298D01*
X020735Y006341D01*
X020814Y006420D01*
X020856Y006523D01*
X020856Y006691D01*
X021010Y006691D01*
X021010Y006091D01*
X021062Y005966D01*
X021157Y005870D01*
X021231Y005840D01*
X021223Y005820D01*
X021223Y005033D01*
X021092Y005087D01*
X020921Y005087D01*
X020856Y005060D01*
X020856Y005138D01*
X020814Y005241D01*
X020735Y005320D01*
X020632Y005362D01*
X017905Y005362D01*
X016905Y006362D01*
X016905Y006362D01*
X016885Y006383D01*
X016885Y006529D01*
X016842Y006632D01*
X016806Y006668D01*
X016842Y006704D01*
X016885Y006807D01*
X016885Y007509D01*
X016842Y007612D01*
X016764Y007691D01*
X016661Y007734D01*
X016100Y007734D01*
X016778Y007677D02*
X017384Y007677D01*
X017344Y007438D02*
X016885Y007438D01*
X016885Y007200D02*
X017344Y007200D01*
X017344Y006961D02*
X016885Y006961D01*
X016850Y006723D02*
X017344Y006723D01*
X017359Y006484D02*
X016885Y006484D01*
X017022Y006246D02*
X021010Y006246D01*
X021010Y006484D02*
X020841Y006484D01*
X021975Y005783D02*
X022228Y006036D01*
X022231Y006033D01*
X022975Y006033D01*
X022952Y005530D02*
X022727Y005530D01*
X023434Y005420D02*
X023434Y005420D01*
X023434Y005224D01*
X023434Y005420D01*
X023434Y005292D02*
X023434Y005292D01*
X023019Y005292D02*
X022727Y005292D01*
X022727Y005053D02*
X023755Y005053D01*
X023848Y005292D02*
X024385Y005292D01*
X024234Y005053D02*
X024218Y005053D01*
X024218Y004815D02*
X024234Y004815D01*
X024234Y004682D02*
X024234Y003885D01*
X024218Y003885D01*
X024218Y004155D01*
X024218Y004682D01*
X024234Y004682D01*
X024234Y004576D02*
X024218Y004576D01*
X024218Y004338D02*
X024234Y004338D01*
X023752Y004338D02*
X023419Y004338D01*
X023419Y004448D02*
X023419Y004764D01*
X023404Y004820D01*
X023375Y004870D01*
X023334Y004911D01*
X023284Y004940D01*
X023228Y004955D01*
X022951Y004955D01*
X022951Y004448D01*
X023419Y004448D01*
X023419Y004576D02*
X023750Y004576D01*
X023750Y004815D02*
X023405Y004815D01*
X022951Y004815D02*
X022935Y004815D01*
X022935Y004576D02*
X022951Y004576D01*
X022951Y004432D02*
X022951Y003924D01*
X022951Y003635D01*
X022935Y003635D01*
X022935Y004432D01*
X022951Y004432D01*
X022951Y004338D02*
X022935Y004338D01*
X022935Y004099D02*
X022951Y004099D01*
X023414Y004099D02*
X023750Y004099D01*
X024218Y004099D02*
X024234Y004099D01*
X023750Y003861D02*
X023419Y003861D01*
X023419Y003619D02*
X022951Y003619D01*
X022951Y003382D01*
X022947Y003382D01*
X022947Y002727D01*
X023444Y002727D01*
X023444Y003191D01*
X023429Y003247D01*
X023412Y003277D01*
X023419Y003303D01*
X023419Y003619D01*
X023750Y003622D02*
X022951Y003622D01*
X022935Y003861D02*
X022951Y003861D01*
X022935Y003384D02*
X022951Y003384D01*
X023419Y003384D02*
X023712Y003384D01*
X023712Y003145D02*
X023444Y003145D01*
X023444Y002907D02*
X023712Y002907D01*
X023712Y002668D02*
X022947Y002668D01*
X022947Y002652D02*
X022947Y002727D01*
X022872Y002727D01*
X022872Y002652D01*
X022947Y002652D01*
X023444Y002652D01*
X023444Y002188D01*
X023429Y002132D01*
X023400Y002082D01*
X023359Y002041D01*
X023309Y002012D01*
X023253Y001997D01*
X022947Y001997D01*
X022947Y002652D01*
X022872Y002652D02*
X022872Y001997D01*
X022565Y001997D01*
X022509Y002012D01*
X022459Y002041D01*
X022418Y002082D01*
X022389Y002132D01*
X022374Y002188D01*
X022374Y002652D01*
X022872Y002652D01*
X022872Y002668D02*
X022323Y002668D01*
X022323Y002430D02*
X022374Y002430D01*
X022872Y002430D02*
X022947Y002430D01*
X023444Y002430D02*
X023712Y002430D01*
X023712Y002191D02*
X023444Y002191D01*
X022947Y002191D02*
X022872Y002191D01*
X022374Y002191D02*
X022323Y002191D01*
X022305Y001953D02*
X023797Y001953D01*
X023852Y001714D02*
X024265Y001714D01*
X024364Y001476D02*
X024010Y001476D01*
X024010Y001237D02*
X024750Y001237D01*
X024786Y000999D02*
X023999Y000999D01*
X023760Y000760D02*
X025024Y000760D01*
X025350Y000760D02*
X025350Y000760D01*
X025676Y000760D02*
X026024Y000760D01*
X026350Y000760D02*
X026350Y000760D01*
X026676Y000760D02*
X028316Y000760D01*
X028316Y000999D02*
X026914Y000999D01*
X026950Y001237D02*
X028316Y001237D01*
X028316Y001476D02*
X026950Y001476D01*
X026768Y001714D02*
X028316Y001714D01*
X028317Y001953D02*
X026735Y001953D01*
X026820Y002191D02*
X028317Y002191D01*
X028317Y002430D02*
X026820Y002430D01*
X026820Y002668D02*
X028317Y002668D01*
X028317Y002907D02*
X026820Y002907D01*
X026820Y003145D02*
X028318Y003145D01*
X028318Y003384D02*
X026836Y003384D01*
X027075Y003622D02*
X028318Y003622D01*
X028318Y003861D02*
X027313Y003861D01*
X027330Y004099D02*
X028318Y004099D01*
X028319Y004338D02*
X027330Y004338D01*
X027330Y004576D02*
X028319Y004576D01*
X028319Y004815D02*
X027204Y004815D01*
X026966Y005053D02*
X028319Y005053D01*
X028320Y005292D02*
X027760Y005292D01*
X027760Y005530D02*
X028320Y005530D01*
X028320Y005769D02*
X027760Y005769D01*
X027760Y006007D02*
X028303Y006007D01*
X028244Y006246D02*
X027554Y006246D01*
X027158Y006484D02*
X028178Y006484D01*
X028057Y006723D02*
X027010Y006723D01*
X027010Y006961D02*
X027909Y006961D01*
X027711Y007200D02*
X027010Y007200D01*
X026988Y007438D02*
X027415Y007438D01*
X026962Y007677D02*
X025172Y007677D01*
X025260Y007438D02*
X025279Y007438D01*
X025718Y007438D02*
X025734Y007438D01*
X025718Y007200D02*
X025734Y007200D01*
X025734Y007025D02*
X025734Y006518D01*
X025951Y006518D01*
X025920Y006487D01*
X025829Y006396D01*
X025742Y006396D01*
X025742Y006401D01*
X025727Y006457D01*
X025698Y006507D01*
X025687Y006518D01*
X025718Y006518D01*
X025718Y007025D01*
X025734Y007025D01*
X025734Y006961D02*
X025718Y006961D01*
X025718Y006723D02*
X025734Y006723D01*
X025711Y006484D02*
X025917Y006484D01*
X023528Y007677D02*
X022663Y007677D01*
X021287Y007677D02*
X020816Y007677D01*
X020856Y007438D02*
X021046Y007438D01*
X021045Y006007D02*
X017260Y006007D01*
X017499Y005769D02*
X021223Y005769D01*
X021223Y005530D02*
X017737Y005530D01*
X016957Y005292D02*
X016909Y005292D01*
X017070Y005053D02*
X017196Y005053D01*
X017070Y004815D02*
X017344Y004815D01*
X017344Y004576D02*
X017070Y004576D01*
X017005Y004338D02*
X017344Y004338D01*
X017344Y004099D02*
X017010Y004099D01*
X017010Y003861D02*
X017385Y003861D01*
X017312Y003622D02*
X016945Y003622D01*
X016483Y003622D02*
X016467Y003622D01*
X016467Y003861D02*
X016483Y003861D01*
X016497Y003384D02*
X016445Y003384D01*
X016535Y003384D02*
X017275Y003384D01*
X017275Y003145D02*
X017179Y003145D01*
X017171Y002907D02*
X017275Y002907D01*
X017335Y002668D02*
X017111Y002668D01*
X017098Y002530D02*
X017098Y002530D01*
X017162Y002430D02*
X017335Y002430D01*
X017842Y002430D02*
X017858Y002430D01*
X017842Y002191D02*
X017858Y002191D01*
X017335Y002191D02*
X017179Y002191D01*
X016997Y001953D02*
X021198Y001953D01*
X020946Y002081D02*
X020905Y002040D01*
X020855Y002011D01*
X020799Y001996D01*
X020483Y001996D01*
X020483Y002464D01*
X020990Y002464D01*
X020990Y002187D01*
X020975Y002131D01*
X020946Y002081D01*
X020990Y002191D02*
X021133Y002191D01*
X020483Y002191D02*
X020467Y002191D01*
X020467Y002430D02*
X020483Y002430D01*
X020990Y002430D02*
X021133Y002430D01*
X022323Y002907D02*
X022374Y002907D01*
X022872Y002907D02*
X022947Y002907D01*
X022935Y003145D02*
X022947Y003145D01*
X019608Y002430D02*
X019592Y002430D01*
X019592Y002191D02*
X019608Y002191D01*
X019623Y001943D02*
X019077Y001943D01*
X018850Y001717D01*
X018623Y001943D01*
X018077Y001943D01*
X017690Y001557D01*
X017690Y001010D01*
X018077Y000623D01*
X018623Y000623D01*
X018850Y000850D01*
X019077Y000623D01*
X019623Y000623D01*
X019850Y000850D01*
X020077Y000623D01*
X020623Y000623D01*
X021010Y001010D01*
X021010Y001557D01*
X020623Y001943D01*
X020077Y001943D01*
X019850Y001717D01*
X019623Y001943D01*
X018733Y002191D02*
X018717Y002191D01*
X018717Y002430D02*
X018733Y002430D01*
X017848Y001714D02*
X016825Y001714D01*
X016950Y001476D02*
X017690Y001476D01*
X017690Y001237D02*
X016950Y001237D01*
X016914Y000999D02*
X017701Y000999D01*
X017940Y000760D02*
X016676Y000760D01*
X016350Y000760D02*
X016350Y000760D01*
X016350Y000999D02*
X016350Y000999D01*
X016350Y001237D02*
X016350Y001237D01*
X015350Y001237D02*
X015350Y001237D01*
X015350Y000999D02*
X015350Y000999D01*
X015350Y000760D02*
X015350Y000760D01*
X015024Y000760D02*
X014760Y000760D01*
X013940Y000760D02*
X012760Y000760D01*
X012999Y000999D02*
X013701Y000999D01*
X013690Y001237D02*
X013010Y001237D01*
X013010Y001476D02*
X013535Y001476D01*
X011797Y001714D02*
X011509Y001714D01*
X011554Y001953D02*
X011558Y001953D01*
X010452Y002191D02*
X010436Y002191D01*
X010436Y002430D02*
X010452Y002430D01*
X010436Y002526D02*
X010084Y002526D01*
X009577Y002526D01*
X009577Y002542D01*
X010436Y002542D01*
X010436Y002526D01*
X009577Y002430D02*
X009561Y002430D01*
X009561Y002526D02*
X008702Y002526D01*
X008702Y002542D01*
X009209Y002542D01*
X009561Y002542D01*
X009561Y002526D01*
X008702Y002430D02*
X008686Y002430D01*
X008686Y002526D02*
X008178Y002526D01*
X007827Y002526D01*
X007827Y002542D01*
X008686Y002542D01*
X008686Y002526D01*
X007827Y002430D02*
X007811Y002430D01*
X007811Y002191D02*
X007827Y002191D01*
X008077Y001943D02*
X007690Y001557D01*
X007690Y001010D01*
X008077Y000623D01*
X008623Y000623D01*
X009010Y001010D01*
X009010Y001557D01*
X008623Y001943D01*
X008077Y001943D01*
X007848Y001714D02*
X007344Y001714D01*
X007418Y001953D02*
X010376Y001953D01*
X009848Y001714D02*
X008852Y001714D01*
X009010Y001476D02*
X009690Y001476D01*
X009690Y001237D02*
X009010Y001237D01*
X008999Y000999D02*
X009701Y000999D01*
X009940Y000760D02*
X008760Y000760D01*
X007940Y000760D02*
X006760Y000760D01*
X006999Y000999D02*
X007701Y000999D01*
X007690Y001237D02*
X007010Y001237D01*
X007126Y001476D02*
X007690Y001476D01*
X008686Y002191D02*
X008702Y002191D01*
X009561Y002191D02*
X009577Y002191D01*
X011300Y001476D02*
X011690Y001476D01*
X011690Y001237D02*
X011017Y001237D01*
X010999Y000999D02*
X011701Y000999D01*
X011940Y000760D02*
X010760Y000760D01*
X005940Y000760D02*
X005760Y000760D01*
X004940Y000760D02*
X003676Y000760D01*
X003350Y000760D02*
X003350Y000760D01*
X003024Y000760D02*
X002676Y000760D01*
X002350Y000760D02*
X002350Y000760D01*
X002024Y000760D02*
X000380Y000760D01*
X000380Y000999D02*
X001786Y000999D01*
X001750Y001237D02*
X000380Y001237D01*
X000380Y001476D02*
X001750Y001476D01*
X002350Y001476D02*
X002350Y001476D01*
X002350Y001714D02*
X002350Y001714D01*
X002768Y001714D02*
X002932Y001714D01*
X003350Y001714D02*
X003350Y001714D01*
X003108Y001953D02*
X003092Y001953D01*
X002692Y001953D02*
X002633Y001953D01*
X002233Y001953D02*
X002217Y001953D01*
X001817Y001953D02*
X000380Y001953D01*
X000380Y001714D02*
X001932Y001714D01*
X001690Y002191D02*
X000380Y002191D01*
X000380Y002430D02*
X001690Y002430D01*
X001690Y002668D02*
X000380Y002668D01*
X000380Y002907D02*
X001592Y002907D01*
X001354Y003145D02*
X000380Y003145D01*
X000380Y003384D02*
X001115Y003384D01*
X000990Y003622D02*
X000380Y003622D01*
X000380Y003861D02*
X000990Y003861D01*
X000990Y004099D02*
X000380Y004099D01*
X000380Y004338D02*
X000990Y004338D01*
X000990Y004576D02*
X000380Y004576D01*
X000380Y004815D02*
X000990Y004815D01*
X001142Y005053D02*
X000380Y005053D01*
X000380Y005292D02*
X000847Y005292D01*
X003593Y004650D02*
X003609Y004650D01*
X003609Y004123D01*
X003886Y004123D01*
X003911Y004130D01*
X003935Y004106D01*
X004037Y004063D01*
X004661Y004063D01*
X004764Y004106D01*
X004842Y004185D01*
X004850Y004203D01*
X004858Y004185D01*
X004936Y004106D01*
X005039Y004063D01*
X005663Y004063D01*
X005725Y004089D01*
X005787Y004063D01*
X006071Y004063D01*
X006032Y003968D01*
X006032Y003693D01*
X005374Y003693D01*
X005297Y003661D01*
X005221Y003693D01*
X004479Y003693D01*
X004413Y003666D01*
X004346Y003693D01*
X003604Y003693D01*
X003538Y003666D01*
X003471Y003693D01*
X003061Y003693D01*
X003270Y003902D01*
X003270Y004136D01*
X003316Y004123D01*
X003593Y004123D01*
X003593Y004650D01*
X003593Y004576D02*
X003609Y004576D01*
X003593Y004338D02*
X003609Y004338D01*
X003270Y004099D02*
X003951Y004099D01*
X003229Y003861D02*
X006032Y003861D01*
X004953Y004099D02*
X004747Y004099D01*
X004850Y004658D02*
X004349Y004658D01*
X004850Y004658D02*
X004850Y005283D01*
X004850Y004658D02*
X005351Y004658D01*
X007788Y003783D02*
X010444Y003783D01*
X010444Y003440D01*
X010436Y003440D01*
X010436Y003758D01*
X010120Y003758D01*
X010064Y003743D01*
X010013Y003714D01*
X010006Y003707D01*
X009999Y003714D01*
X009949Y003743D01*
X009893Y003758D01*
X009577Y003758D01*
X009577Y003440D01*
X009561Y003440D01*
X009561Y003758D01*
X009245Y003758D01*
X009189Y003743D01*
X009138Y003714D01*
X009131Y003707D01*
X009124Y003714D01*
X009074Y003743D01*
X009018Y003758D01*
X008702Y003758D01*
X008702Y003440D01*
X008686Y003440D01*
X008686Y003758D01*
X008370Y003758D01*
X008314Y003743D01*
X008263Y003714D01*
X008256Y003707D01*
X008249Y003714D01*
X008199Y003743D01*
X008143Y003758D01*
X007827Y003758D01*
X007827Y003440D01*
X007811Y003440D01*
X007811Y003758D01*
X007788Y003758D01*
X007788Y003783D01*
X007811Y003622D02*
X007827Y003622D01*
X008686Y003622D02*
X008702Y003622D01*
X009561Y003622D02*
X009577Y003622D01*
X010436Y003622D02*
X010444Y003622D01*
X012315Y003384D02*
X012325Y003384D01*
X012384Y003145D02*
X012690Y003145D01*
X013048Y003145D02*
X013083Y003145D01*
X013083Y003154D02*
X013083Y002676D01*
X013601Y002676D01*
X013601Y002963D01*
X013586Y003019D01*
X013557Y003069D01*
X013516Y003110D01*
X013465Y003139D01*
X013409Y003154D01*
X013083Y003154D01*
X013442Y003145D02*
X014021Y003145D01*
X014029Y002907D02*
X013601Y002907D01*
X014081Y002786D02*
X014102Y002786D01*
X014081Y002786D01*
X014102Y002786D02*
X014102Y002786D01*
X014089Y002668D02*
X013083Y002668D01*
X013048Y002668D02*
X012479Y002668D01*
X012479Y002907D02*
X012531Y002907D01*
X013048Y002907D02*
X013083Y002907D01*
X014081Y002530D02*
X014102Y002530D01*
X014081Y002530D01*
X014102Y002530D02*
X014102Y002530D01*
X014038Y002430D02*
X013793Y002430D01*
X013750Y003384D02*
X014590Y003384D01*
X014865Y003622D02*
X013940Y003622D01*
X013940Y003861D02*
X014196Y003861D01*
X014180Y004099D02*
X013940Y004099D01*
X014010Y004338D02*
X014180Y004338D01*
X014194Y004576D02*
X014065Y004576D01*
X014085Y004634D02*
X014085Y004634D01*
X014219Y004815D02*
X014240Y004815D01*
X014610Y004815D02*
X014610Y004815D01*
X014610Y004782D02*
X014610Y004782D01*
X014610Y005053D02*
X014610Y005053D01*
X014353Y005053D02*
X014241Y005053D01*
X014241Y005292D02*
X014615Y005292D01*
X014615Y005530D02*
X014241Y005530D01*
X014241Y005769D02*
X014702Y005769D01*
X014941Y006007D02*
X014241Y006007D01*
X014241Y006246D02*
X015065Y006246D01*
X015065Y006484D02*
X014241Y006484D01*
X014608Y006723D02*
X015174Y006723D01*
X015125Y006961D02*
X014635Y006961D01*
X014635Y007200D02*
X015125Y007200D01*
X015125Y007438D02*
X014635Y007438D01*
X015593Y007438D02*
X015600Y007438D01*
X015593Y007200D02*
X015600Y007200D01*
X016100Y005530D02*
X016719Y005530D01*
X020763Y005292D02*
X021223Y005292D01*
X021223Y005053D02*
X021173Y005053D01*
X011839Y004908D02*
X011725Y004908D01*
X007344Y007200D02*
X007206Y007200D01*
X007206Y007438D02*
X007344Y007438D01*
X007428Y007677D02*
X007206Y007677D01*
X006594Y007403D02*
X006594Y007328D01*
X006331Y007328D01*
X005794Y007328D01*
X005794Y007403D01*
X006594Y007403D01*
X005719Y007403D02*
X005719Y007328D01*
X005456Y007328D01*
X004919Y007328D01*
X004919Y007403D01*
X005719Y007403D01*
X003100Y006690D02*
X002975Y006815D01*
X002608Y006815D01*
X002233Y002417D02*
X003092Y002417D01*
X003092Y002401D01*
X002760Y002401D01*
X002233Y002401D01*
X002233Y002417D01*
X002217Y002191D02*
X002233Y002191D01*
X003092Y002191D02*
X003108Y002191D01*
X003768Y001714D02*
X004848Y001714D01*
X004690Y001476D02*
X003950Y001476D01*
X003350Y001476D02*
X003350Y001476D01*
X003350Y001237D02*
X003350Y001237D01*
X003350Y000999D02*
X003350Y000999D01*
X003914Y000999D02*
X004701Y000999D01*
X004690Y001237D02*
X003950Y001237D01*
X002350Y001237D02*
X002350Y001237D01*
X002350Y000999D02*
X002350Y000999D01*
X018760Y000760D02*
X018940Y000760D01*
X019760Y000760D02*
X019940Y000760D01*
X020760Y000760D02*
X021940Y000760D01*
X021701Y000999D02*
X020999Y000999D01*
X021010Y001237D02*
X021521Y001237D01*
X021283Y001476D02*
X021010Y001476D01*
X020852Y001714D02*
X021198Y001714D01*
X025350Y001237D02*
X025350Y001237D01*
X025350Y000999D02*
X025350Y000999D01*
X026350Y000999D02*
X026350Y000999D01*
X026350Y001237D02*
X026350Y001237D01*
D30*
X027506Y001315D03*
X027772Y001315D03*
X027772Y001580D03*
X027506Y001580D03*
X024694Y001752D03*
X022350Y002033D03*
X021475Y001127D03*
X021225Y001127D03*
X021225Y000877D03*
X021475Y000877D03*
X017225Y002158D03*
X017225Y002408D03*
X017225Y002658D03*
X017225Y002940D03*
X016256Y002252D03*
X016006Y002252D03*
X015756Y002252D03*
X015475Y002252D03*
X015506Y002002D03*
X015256Y002002D03*
X015756Y002002D03*
X016006Y002002D03*
X016256Y002002D03*
X016506Y002002D03*
X013975Y002393D03*
X013975Y002674D03*
X013975Y002955D03*
X013975Y003236D03*
X013413Y003299D03*
X013131Y003299D03*
X012850Y003299D03*
X012569Y003299D03*
X011819Y003190D03*
X011569Y003252D03*
X011569Y003502D03*
X011819Y003440D03*
X011506Y003752D03*
X011506Y004033D03*
X011475Y004658D03*
X011225Y004658D03*
X011225Y004908D03*
X011475Y004908D03*
X011475Y005158D03*
X011225Y005158D03*
X008694Y006033D03*
X008413Y006033D03*
X008131Y006033D03*
X007850Y006033D03*
X007850Y006315D03*
X008131Y006315D03*
X008413Y006315D03*
X008694Y006315D03*
X008272Y005408D03*
X008006Y005408D03*
X006756Y005221D03*
X004256Y006705D03*
X004006Y006705D03*
X004006Y006955D03*
X004256Y006955D03*
X003225Y007190D03*
X003256Y007440D03*
X003475Y007533D03*
X003725Y007533D03*
X003944Y007408D03*
X004194Y007408D03*
X004288Y007658D03*
X004038Y007658D03*
X003819Y007752D03*
X003569Y007752D03*
X003319Y007721D03*
X003100Y007627D03*
X002913Y007752D03*
X002663Y007783D03*
X002069Y007690D03*
X001850Y007565D03*
X002038Y006783D03*
X000584Y004127D03*
X000584Y003861D03*
X000991Y001658D03*
X001256Y001658D03*
X001256Y001393D03*
X000991Y001393D03*
X009194Y001377D03*
X009459Y001377D03*
X009459Y001643D03*
X009194Y001643D03*
X013194Y001299D03*
X013444Y001299D03*
X013444Y001049D03*
X013194Y001049D03*
X021006Y003033D03*
X019553Y003908D03*
X019303Y003908D03*
X019038Y003908D03*
X018772Y003908D03*
X018506Y003924D03*
X018225Y003924D03*
X017975Y003924D03*
X017850Y003690D03*
X018100Y003690D03*
X018350Y003690D03*
X017194Y004533D03*
X017194Y004815D03*
X020959Y005252D03*
X020959Y005533D03*
X021006Y004658D03*
X022913Y006815D03*
X023163Y006815D03*
X023413Y006815D03*
X023413Y007065D03*
X023163Y007065D03*
X022913Y007065D03*
X022897Y007705D03*
X023163Y007705D03*
X021100Y007721D03*
X017241Y007549D03*
X016975Y007549D03*
X016975Y007283D03*
X017241Y007283D03*
X015022Y007283D03*
X014756Y007283D03*
X014756Y007549D03*
X015022Y007549D03*
X013100Y006502D03*
X010975Y007393D03*
X010975Y007658D03*
X027163Y007158D03*
X027413Y007158D03*
X027397Y006893D03*
X027163Y006893D03*
D31*
X025975Y006919D02*
X025160Y006919D01*
X025160Y006801D02*
X025975Y006801D01*
X025975Y006682D02*
X025073Y006682D01*
X025054Y006663D02*
X025160Y006769D01*
X025160Y007533D01*
X025975Y007533D01*
X025975Y006401D01*
X025870Y006296D01*
X025597Y006296D01*
X024975Y006296D01*
X024975Y006663D01*
X025054Y006663D01*
X024975Y006564D02*
X025975Y006564D01*
X025975Y006445D02*
X024975Y006445D01*
X024975Y006327D02*
X025901Y006327D01*
X023840Y006327D02*
X023050Y006327D01*
X023035Y006333D02*
X022295Y006333D01*
X022288Y006336D01*
X022168Y006336D01*
X022058Y006291D01*
X021974Y006206D01*
X021926Y006158D01*
X021350Y006158D01*
X021350Y007283D01*
X023540Y007283D01*
X023540Y006769D01*
X023646Y006663D01*
X023840Y006663D01*
X023840Y006296D01*
X023152Y006296D01*
X023149Y006297D01*
X023123Y006297D01*
X023035Y006333D01*
X023840Y006445D02*
X021350Y006445D01*
X021350Y006327D02*
X022145Y006327D01*
X021976Y006208D02*
X021350Y006208D01*
X021350Y006564D02*
X023840Y006564D01*
X023627Y006682D02*
X021350Y006682D01*
X021350Y006801D02*
X023540Y006801D01*
X023540Y006919D02*
X021350Y006919D01*
X021350Y007038D02*
X023540Y007038D01*
X023540Y007156D02*
X021350Y007156D01*
X021350Y007275D02*
X023540Y007275D01*
X025160Y007275D02*
X025975Y007275D01*
X025975Y007156D02*
X025160Y007156D01*
X025160Y007038D02*
X025975Y007038D01*
X025975Y007393D02*
X025160Y007393D01*
X025160Y007512D02*
X025975Y007512D01*
X025975Y005520D02*
X024936Y005520D01*
X024923Y005533D01*
X024840Y005533D01*
X024840Y005158D01*
X025350Y005158D01*
X025350Y003408D01*
X025975Y003408D01*
X025975Y003414D01*
X025470Y003919D01*
X025470Y004648D01*
X025975Y005153D01*
X025975Y005520D01*
X025975Y005497D02*
X024840Y005497D01*
X024600Y005497D02*
X022850Y005497D01*
X022850Y005533D02*
X023090Y005533D01*
X023103Y005520D01*
X024399Y005520D01*
X024430Y005533D01*
X024600Y005533D01*
X024600Y005158D01*
X022850Y005158D01*
X022850Y005533D01*
X022850Y005379D02*
X024600Y005379D01*
X024600Y005260D02*
X022850Y005260D01*
X024840Y005260D02*
X025975Y005260D01*
X025964Y005142D02*
X025350Y005142D01*
X025350Y005023D02*
X025846Y005023D01*
X025727Y004905D02*
X025350Y004905D01*
X025350Y004786D02*
X025609Y004786D01*
X025490Y004668D02*
X025350Y004668D01*
X025350Y004549D02*
X025470Y004549D01*
X025470Y004431D02*
X025350Y004431D01*
X025350Y004312D02*
X025470Y004312D01*
X025470Y004194D02*
X025350Y004194D01*
X025350Y004075D02*
X025470Y004075D01*
X025470Y003957D02*
X025350Y003957D01*
X025350Y003838D02*
X025550Y003838D01*
X025669Y003720D02*
X025350Y003720D01*
X025350Y003601D02*
X025787Y003601D01*
X025906Y003483D02*
X025350Y003483D01*
X020475Y003483D02*
X017725Y003483D01*
X017725Y003408D02*
X017725Y004283D01*
X020475Y004283D01*
X020475Y003408D01*
X017725Y003408D01*
X017725Y003601D02*
X020475Y003601D01*
X020475Y003720D02*
X017725Y003720D01*
X017725Y003838D02*
X020475Y003838D01*
X020475Y003957D02*
X017725Y003957D01*
X017725Y004075D02*
X020475Y004075D01*
X020475Y004194D02*
X017725Y004194D01*
X016752Y003042D02*
X016484Y003042D01*
X016350Y003033D01*
X016752Y002786D02*
X016850Y002786D01*
X016850Y002658D01*
X016752Y002786D02*
X016752Y002530D01*
X014734Y003042D02*
X014448Y003042D01*
X014448Y002786D02*
X014350Y002786D01*
X014350Y002658D01*
X014448Y002786D02*
X014448Y002530D01*
X012850Y003158D02*
X012816Y003158D01*
X011975Y003127D02*
X011489Y003127D01*
X011489Y003009D02*
X011975Y003009D01*
X011975Y002890D02*
X011489Y002890D01*
X011489Y002772D02*
X011975Y002772D01*
X011975Y002653D02*
X011489Y002653D01*
X011489Y002535D02*
X011975Y002535D01*
X011975Y002416D02*
X011489Y002416D01*
X011489Y002408D02*
X011489Y003366D01*
X011425Y003520D01*
X011413Y003533D01*
X011413Y004283D01*
X011925Y004283D01*
X011925Y004252D01*
X011897Y004224D01*
X011897Y003569D01*
X011915Y003551D01*
X011915Y003347D01*
X011962Y003233D01*
X011975Y003220D01*
X011975Y002408D01*
X011489Y002408D01*
X011100Y003158D02*
X010975Y003158D01*
X010975Y003533D01*
X010600Y003533D01*
X010600Y005658D01*
X011850Y005658D01*
X011850Y004563D01*
X011357Y004563D01*
X011254Y004521D01*
X011175Y004442D01*
X011133Y004339D01*
X011133Y004316D01*
X011100Y004283D01*
X011100Y003158D01*
X011100Y003246D02*
X010975Y003246D01*
X010975Y003364D02*
X011100Y003364D01*
X011100Y003483D02*
X010975Y003483D01*
X011440Y003483D02*
X011915Y003483D01*
X011915Y003364D02*
X011489Y003364D01*
X011489Y003246D02*
X011957Y003246D01*
X011897Y003601D02*
X011413Y003601D01*
X011413Y003720D02*
X011897Y003720D01*
X011897Y003838D02*
X011413Y003838D01*
X011100Y003838D02*
X010600Y003838D01*
X010506Y003838D02*
X007694Y003838D01*
X007694Y003783D02*
X007694Y004283D01*
X010506Y004283D01*
X010506Y003783D01*
X007694Y003783D01*
X007694Y003957D02*
X010506Y003957D01*
X010600Y003957D02*
X011100Y003957D01*
X011100Y004075D02*
X010600Y004075D01*
X010506Y004075D02*
X007694Y004075D01*
X007694Y004194D02*
X010506Y004194D01*
X010600Y004194D02*
X011100Y004194D01*
X011129Y004312D02*
X010600Y004312D01*
X010600Y004431D02*
X011171Y004431D01*
X011323Y004549D02*
X010600Y004549D01*
X010600Y004668D02*
X011850Y004668D01*
X011850Y004786D02*
X010600Y004786D01*
X010600Y004905D02*
X011850Y004905D01*
X011839Y004908D02*
X011839Y004920D01*
X011851Y004920D01*
X011850Y005023D02*
X010600Y005023D01*
X010600Y005142D02*
X011850Y005142D01*
X011850Y005260D02*
X010600Y005260D01*
X010600Y005379D02*
X011850Y005379D01*
X011850Y005497D02*
X010600Y005497D01*
X010600Y005616D02*
X011850Y005616D01*
X012349Y005721D02*
X012500Y005658D01*
X012500Y006221D01*
X012700Y006221D02*
X013068Y006221D01*
X013097Y006219D01*
X013125Y006214D01*
X013152Y006204D01*
X013178Y006192D01*
X013202Y006176D01*
X013224Y006157D01*
X013243Y006135D01*
X013259Y006111D01*
X013271Y006085D01*
X013281Y006058D01*
X013286Y006030D01*
X013288Y006001D01*
X013581Y005408D02*
X012825Y005408D01*
X012825Y005334D01*
X012696Y005206D01*
X012525Y005206D01*
X012525Y004533D01*
X013051Y004533D01*
X013581Y005064D01*
X013581Y005408D01*
X013581Y005379D02*
X012825Y005379D01*
X012751Y005260D02*
X013581Y005260D01*
X013581Y005142D02*
X012525Y005142D01*
X012525Y005023D02*
X013541Y005023D01*
X013422Y004905D02*
X012525Y004905D01*
X012525Y004786D02*
X013304Y004786D01*
X013185Y004668D02*
X012525Y004668D01*
X012525Y004549D02*
X013067Y004549D01*
X012553Y004224D02*
X012525Y004252D01*
X012525Y004253D01*
X013600Y004253D01*
X013600Y003690D01*
X012553Y003690D01*
X012553Y004224D01*
X012553Y004194D02*
X013600Y004194D01*
X013600Y004075D02*
X012553Y004075D01*
X012553Y003957D02*
X013600Y003957D01*
X013600Y003838D02*
X012553Y003838D01*
X012553Y003720D02*
X013600Y003720D01*
X011897Y003957D02*
X011413Y003957D01*
X011413Y004075D02*
X011897Y004075D01*
X011897Y004194D02*
X011413Y004194D01*
X011100Y003720D02*
X010600Y003720D01*
X010600Y003601D02*
X011100Y003601D01*
X007444Y005533D02*
X006868Y005533D01*
X006864Y005538D01*
X006753Y005583D01*
X003599Y005583D01*
X003400Y005783D01*
X003400Y006440D01*
X003729Y006440D01*
X003777Y006392D01*
X003865Y006356D01*
X004398Y006356D01*
X004486Y006392D01*
X004553Y006460D01*
X004584Y006535D01*
X007444Y006535D01*
X007444Y006457D01*
X007444Y005533D01*
X007444Y005616D02*
X003567Y005616D01*
X003448Y005734D02*
X007444Y005734D01*
X007444Y005853D02*
X003400Y005853D01*
X003400Y005971D02*
X007444Y005971D01*
X007444Y006090D02*
X003400Y006090D01*
X003400Y006208D02*
X007444Y006208D01*
X007444Y006327D02*
X003400Y006327D01*
X002788Y006327D02*
X002298Y006327D01*
X002298Y006445D02*
X002788Y006445D01*
X002788Y006502D02*
X002298Y006491D01*
X002298Y006196D01*
X002429Y006196D01*
X002535Y006091D01*
X002535Y005408D01*
X002788Y005408D01*
X002788Y006502D01*
X002788Y006208D02*
X002298Y006208D01*
X002535Y006090D02*
X002788Y006090D01*
X002788Y005971D02*
X002535Y005971D01*
X002535Y005853D02*
X002788Y005853D01*
X002788Y005734D02*
X002535Y005734D01*
X002535Y005616D02*
X002788Y005616D01*
X002788Y005497D02*
X002535Y005497D01*
X004539Y006445D02*
X007444Y006445D01*
X007444Y006457D02*
X007444Y006457D01*
X007725Y006445D02*
X008819Y006445D01*
X008819Y006533D02*
X007725Y006533D01*
X007725Y005940D01*
X008819Y005940D01*
X008819Y006533D01*
X008819Y006327D02*
X007725Y006327D01*
X007725Y006208D02*
X008819Y006208D01*
X008694Y006315D02*
X008600Y007129D01*
X009100Y007004D01*
X007444Y007095D02*
X007444Y007551D01*
X007444Y007551D01*
X007444Y007877D01*
X003038Y007877D01*
X003038Y007127D01*
X003679Y007127D01*
X003709Y007201D01*
X003777Y007268D01*
X003865Y007305D01*
X004398Y007305D01*
X004486Y007268D01*
X004553Y007201D01*
X004590Y007112D01*
X004590Y007095D01*
X007444Y007095D01*
X007444Y007156D02*
X004572Y007156D01*
X004470Y007275D02*
X007444Y007275D01*
X007444Y007393D02*
X003038Y007393D01*
X003038Y007512D02*
X007444Y007512D01*
X007444Y007630D02*
X003038Y007630D01*
X003038Y007749D02*
X007444Y007749D01*
X007444Y007867D02*
X003038Y007867D01*
X002788Y007408D02*
X002319Y007408D01*
X002006Y007190D01*
X002788Y007190D01*
X002788Y007408D01*
X002788Y007393D02*
X002297Y007393D01*
X002128Y007275D02*
X002788Y007275D01*
X003038Y007275D02*
X003793Y007275D01*
X003691Y007156D02*
X003038Y007156D01*
X003913Y007065D02*
X004350Y007065D01*
X004350Y006596D01*
X003913Y006596D01*
X003913Y007065D01*
X003913Y007038D02*
X004350Y007038D01*
X004350Y006919D02*
X003913Y006919D01*
X003913Y006801D02*
X004350Y006801D01*
X004350Y006682D02*
X003913Y006682D01*
X007725Y006090D02*
X008819Y006090D01*
X008819Y005971D02*
X007725Y005971D01*
X024840Y005379D02*
X025975Y005379D01*
D32*
X025350Y004690D02*
X024975Y004690D01*
X024975Y003877D02*
X025350Y003877D01*
X017225Y002658D02*
X016850Y002658D01*
X014350Y002658D02*
X013850Y002658D01*
X013600Y002033D02*
X012100Y002033D01*
X011850Y002283D01*
X011850Y002624D01*
X011884Y002658D01*
X011850Y002655D01*
X011850Y002662D01*
X011819Y003440D01*
X011069Y003282D02*
X010975Y003282D01*
X010975Y003283D01*
X010975Y003282D02*
X010443Y003282D01*
X009100Y003283D02*
X009099Y003282D01*
X007225Y004117D02*
X006725Y003617D01*
X007225Y004117D02*
X007225Y004658D01*
X007225Y006190D01*
X006631Y006263D01*
X011850Y002662D02*
X011884Y002658D01*
X013600Y002033D02*
X014350Y001283D01*
X006725Y001658D02*
X006350Y001283D01*
X005350Y001283D01*
X006725Y001658D02*
X006725Y002200D01*
D33*
X002725Y004658D02*
X002350Y004283D01*
X002725Y004658D02*
X003601Y004658D01*
X021756Y004408D02*
X021756Y003658D01*
X022163Y003658D01*
X022195Y003627D01*
X021756Y003658D02*
X021756Y002718D01*
X021728Y002690D01*
X021728Y001780D01*
X022225Y001283D01*
X022350Y001283D01*
X021728Y002690D02*
X021694Y002686D01*
X021756Y004408D02*
X022163Y004408D01*
X022195Y004440D01*
X021756Y004408D02*
X021756Y005065D01*
X021975Y005283D01*
X021975Y005292D01*
D34*
X013066Y002658D02*
X012816Y003033D01*
X012600Y003033D01*
X012225Y003408D01*
X012225Y003897D01*
D35*
X012225Y005597D01*
X012349Y005721D01*
X011687Y005573D02*
X011687Y007158D01*
X012513Y007158D02*
X013351Y007158D01*
X013881Y006689D02*
X014099Y006906D01*
X014099Y007158D01*
X013881Y006689D02*
X013881Y004940D01*
X012850Y003908D01*
X012611Y003908D01*
X012599Y003897D01*
X011851Y003897D02*
X011851Y003472D01*
X011819Y003440D01*
X014734Y003042D02*
X015225Y003408D01*
X015225Y004658D01*
X015349Y004782D01*
X015590Y004782D01*
X015850Y004408D02*
X016224Y004782D01*
X016475Y004782D01*
X015850Y004408D02*
X015590Y004408D01*
X014975Y004533D02*
X014850Y004408D01*
X014610Y004408D01*
X014975Y004533D02*
X014975Y005532D01*
X015601Y006158D01*
X016349Y007158D01*
X019100Y007051D02*
X021949Y007051D01*
X021975Y007024D01*
X022702Y007024D01*
X023434Y006292D01*
X023434Y006036D02*
X023103Y006036D01*
X022975Y006033D01*
X023434Y006036D02*
X023978Y006036D01*
X024100Y006158D01*
X024100Y007157D01*
X023976Y007158D01*
X024600Y007034D02*
X024600Y006158D01*
X024663Y006096D01*
X024347Y005780D01*
X023434Y005780D01*
X023434Y005524D02*
X023434Y004824D01*
X023600Y004658D01*
X024974Y004690D02*
X024975Y004157D01*
X024975Y003877D01*
X024974Y003877D01*
X024974Y003408D01*
X025225Y003157D01*
X026225Y003157D01*
X025225Y003157D02*
X024288Y003157D01*
X024288Y002409D02*
X024725Y002409D01*
X024725Y001783D01*
X024694Y001752D01*
X024725Y002409D02*
X025225Y002409D01*
X026225Y002409D01*
X021006Y003033D02*
X021006Y004658D01*
X021975Y005292D02*
X021975Y005783D01*
X024663Y006096D02*
X024725Y006033D01*
X025263Y006033D01*
X025266Y006036D01*
X025978Y006036D01*
X026225Y006283D01*
X026475Y006283D01*
X026474Y006284D01*
X026474Y007033D01*
X025726Y007033D02*
X025726Y006752D01*
X025266Y006292D01*
X026475Y006283D02*
X026850Y006283D01*
X027225Y005908D01*
X027225Y005659D01*
X027224Y005658D01*
X026476Y005658D02*
X026354Y005780D01*
X025266Y005780D01*
X025266Y005524D02*
X024974Y005232D01*
X024974Y004690D01*
X017975Y003924D02*
X017725Y004002D01*
X017725Y005033D01*
X016600Y006158D01*
X016349Y006158D01*
X013288Y006001D02*
X013100Y006001D01*
X013100Y006502D01*
X011601Y005721D02*
X011687Y005573D01*
X011601Y005721D02*
X011601Y005170D01*
X011851Y004920D01*
X012599Y004920D02*
X012923Y004920D01*
X013288Y005253D01*
X015590Y004034D02*
X015590Y003418D01*
X015975Y003033D01*
X016350Y003033D01*
X007819Y003282D02*
X007599Y003282D01*
X007225Y002908D01*
X006350Y002908D01*
X005851Y002409D01*
X005725Y002409D01*
X004850Y002409D01*
X003975Y002409D01*
X003975Y003157D02*
X003100Y003157D01*
X002225Y003157D01*
X002725Y003158D01*
X001850Y003158D01*
X001350Y003658D01*
X001350Y004752D01*
X001819Y005221D01*
X002475Y005221D01*
X002600Y005346D01*
X002600Y006433D01*
X002608Y006441D01*
X002038Y006783D02*
X002038Y005816D01*
X002099Y005721D01*
X001351Y005721D02*
X001350Y005722D01*
X001350Y006596D01*
X001943Y007189D01*
X002608Y007189D01*
X006099Y004658D02*
X007225Y004658D01*
X007818Y003283D02*
X007819Y003282D01*
X005725Y003157D02*
X004850Y003157D01*
X003975Y003157D01*
X024600Y007034D02*
X024724Y007158D01*
D36*
X011069Y003282D02*
X011069Y001908D01*
X010475Y001408D01*
X010350Y001283D01*
X010443Y003282D02*
X008694Y003282D01*
X009099Y003282D02*
X007819Y003282D01*
D37*
X008225Y006815D02*
X004069Y006815D01*
D38*
X015350Y002283D02*
X015444Y002377D01*
X016288Y002377D01*
X016381Y002283D01*
X016850Y002283D01*
X016475Y001908D01*
X014725Y001908D01*
X014350Y002283D01*
X015350Y002283D01*
X015419Y002352D02*
X016313Y002352D01*
X016820Y002253D02*
X014380Y002253D01*
X014478Y002155D02*
X016722Y002155D01*
X016623Y002056D02*
X014577Y002056D01*
X014675Y001958D02*
X016525Y001958D01*
D39*
X022350Y001283D02*
X023350Y001283D01*
M02*
