G75*
%MOIN*%
%OFA0B0*%
%FSLAX24Y24*%
%IPPOS*%
%LPD*%
%AMOC8*
5,1,8,0,0,1.08239X$1,22.5*
%
%ADD10R,0.0217X0.0472*%
%ADD11R,0.0709X0.0630*%
%ADD12R,0.0512X0.0591*%
%ADD13R,0.0630X0.0512*%
%ADD14R,0.0630X0.0551*%
%ADD15R,0.0472X0.0472*%
%ADD16R,0.0512X0.0630*%
%ADD17R,0.0945X0.0945*%
%ADD18R,0.0630X0.0945*%
%ADD19R,0.0591X0.0512*%
%ADD20R,0.2953X0.0945*%
%ADD21R,0.0315X0.0236*%
%ADD22R,0.0300X0.0157*%
%ADD23R,0.0295X0.0118*%
%ADD24R,0.0827X0.0591*%
%ADD25R,0.0512X0.0160*%
%ADD26R,0.0110X0.0169*%
D10*
X011851Y003897D03*
X012225Y003897D03*
X012599Y003897D03*
X012599Y004920D03*
X011851Y004920D03*
D11*
X006631Y006263D03*
X005756Y006263D03*
X004881Y006263D03*
X004881Y007366D03*
X005756Y007366D03*
X006631Y007366D03*
D12*
X002099Y005721D03*
X001351Y005721D03*
X011601Y005721D03*
X012349Y005721D03*
X015601Y007158D03*
X016349Y007158D03*
X022195Y004440D03*
X022943Y004440D03*
X022943Y003627D03*
X022195Y003627D03*
X025726Y007033D03*
X026474Y007033D03*
D13*
X016475Y004782D03*
X016475Y004034D03*
X013288Y005253D03*
X013288Y006001D03*
X004850Y003157D03*
X003975Y003157D03*
X003100Y003157D03*
X002225Y003157D03*
X002225Y002409D03*
X003100Y002409D03*
X003975Y002409D03*
X004850Y002409D03*
X025225Y002409D03*
X026225Y002409D03*
X026225Y003157D03*
X025225Y003157D03*
D14*
X013066Y002658D03*
X011884Y002658D03*
D15*
X011687Y007158D03*
X012513Y007158D03*
D16*
X013351Y007158D03*
X014099Y007158D03*
X015601Y006158D03*
X016349Y006158D03*
X023976Y007158D03*
X024724Y007158D03*
X026476Y005658D03*
X027224Y005658D03*
X024974Y004690D03*
X024226Y004690D03*
X024226Y003877D03*
X024974Y003877D03*
X006099Y004658D03*
X005351Y004658D03*
X004349Y004658D03*
X003601Y004658D03*
D17*
X021975Y005292D03*
X021975Y007024D03*
D18*
X021728Y002690D03*
X022909Y002690D03*
D19*
X024288Y002409D03*
X024288Y003157D03*
X020475Y003220D03*
X019600Y003220D03*
X018725Y003220D03*
X017850Y003220D03*
X017850Y002472D03*
X018725Y002472D03*
X019600Y002472D03*
X020475Y002472D03*
X010444Y002534D03*
X009569Y002534D03*
X008694Y002534D03*
X007819Y002534D03*
X007819Y003282D03*
X008694Y003282D03*
X009569Y003282D03*
X010444Y003282D03*
X005725Y003157D03*
X005725Y002409D03*
D20*
X009100Y004563D03*
X009100Y007004D03*
X019100Y007051D03*
X019100Y004610D03*
D21*
X003592Y006441D03*
X002608Y006441D03*
X002608Y006815D03*
X003592Y006815D03*
X003592Y007189D03*
X002608Y007189D03*
D22*
X014610Y004782D03*
X014610Y004408D03*
X015590Y004408D03*
X015590Y004782D03*
X015590Y004034D03*
X014610Y004034D03*
D23*
X014448Y003042D03*
X014448Y002786D03*
X014448Y002530D03*
X014448Y002274D03*
X016752Y002274D03*
X016752Y002530D03*
X016752Y002786D03*
X016752Y003042D03*
D24*
X006725Y002200D03*
X006725Y003617D03*
D25*
X023434Y005524D03*
X023434Y005780D03*
X023434Y006036D03*
X023434Y006292D03*
X025266Y006292D03*
X025266Y006036D03*
X025266Y005780D03*
X025266Y005524D03*
D26*
X012700Y006221D03*
X012500Y006221D03*
M02*
