G75*
%MOIN*%
%OFA0B0*%
%FSLAX24Y24*%
%IPPOS*%
%LPD*%
%AMOC8*
5,1,8,0,0,1.08239X$1,22.5*
%
%ADD10C,0.0620*%
%ADD11C,0.0400*%
%ADD12C,0.0070*%
%ADD13C,0.0060*%
%ADD14C,0.0050*%
%ADD15C,0.0030*%
%ADD16R,0.0160X0.0340*%
%ADD17C,0.0020*%
%ADD18C,0.0040*%
%ADD19R,0.0374X0.0197*%
%ADD20C,0.0120*%
%ADD21R,0.0230X0.0180*%
%ADD22R,0.0140X0.0560*%
D10*
X007160Y004284D02*
X008081Y004284D01*
D11*
X021050Y006034D02*
X022118Y006034D01*
X021584Y006568D02*
X021584Y005500D01*
D12*
X015613Y005074D02*
X015613Y004715D01*
X015541Y004644D01*
X015470Y004644D01*
X015398Y004787D02*
X015613Y004787D01*
X015398Y004787D02*
X015326Y004859D01*
X015326Y005074D01*
X015158Y005074D02*
X015086Y005074D01*
X014943Y004931D01*
X014943Y005074D02*
X014943Y004787D01*
X014769Y004931D02*
X014482Y004931D01*
X014482Y005002D02*
X014482Y004859D01*
X014554Y004787D01*
X014697Y004787D01*
X014769Y004931D02*
X014769Y005002D01*
X014697Y005074D01*
X014554Y005074D01*
X014482Y005002D01*
X014319Y005074D02*
X014175Y005074D01*
X014247Y005146D02*
X014247Y004859D01*
X014319Y004787D01*
X014012Y004787D02*
X013940Y004859D01*
X013940Y005146D01*
X013868Y005074D02*
X014012Y005074D01*
X013695Y005002D02*
X013695Y004787D01*
X013480Y004787D01*
X013408Y004859D01*
X013480Y004931D01*
X013695Y004931D01*
X013695Y005002D02*
X013623Y005074D01*
X013480Y005074D01*
X013234Y005002D02*
X013163Y005074D01*
X012948Y005074D01*
X013234Y005002D02*
X013234Y004859D01*
X013163Y004787D01*
X012948Y004787D01*
X012948Y005217D01*
X012948Y005537D02*
X013234Y005537D01*
X013091Y005537D02*
X013091Y005967D01*
X012948Y005824D01*
X013408Y005824D02*
X013480Y005752D01*
X013623Y005752D01*
X013695Y005681D01*
X013695Y005609D01*
X013623Y005537D01*
X013480Y005537D01*
X013408Y005609D01*
X013408Y005681D01*
X013480Y005752D01*
X013408Y005824D02*
X013408Y005896D01*
X013480Y005967D01*
X013623Y005967D01*
X013695Y005896D01*
X013695Y005824D01*
X013623Y005752D01*
X013868Y005752D02*
X013868Y005609D01*
X013940Y005537D01*
X014083Y005537D01*
X014155Y005609D01*
X014155Y005681D01*
X014083Y005752D01*
X013868Y005752D01*
X014012Y005896D01*
X014155Y005967D01*
X014329Y005967D02*
X014329Y005752D01*
X014472Y005824D01*
X014544Y005824D01*
X014616Y005752D01*
X014616Y005609D01*
X014544Y005537D01*
X014400Y005537D01*
X014329Y005609D01*
X014789Y005609D02*
X014861Y005537D01*
X015004Y005537D01*
X015076Y005609D01*
X015076Y005896D01*
X014789Y005609D01*
X014789Y005896D01*
X014861Y005967D01*
X015004Y005967D01*
X015076Y005896D01*
X014616Y005967D02*
X014329Y005967D01*
X014554Y004539D02*
X014554Y004467D01*
X014554Y004324D02*
X014554Y004037D01*
X014482Y004037D02*
X014626Y004037D01*
X014789Y004109D02*
X014861Y004037D01*
X015004Y004037D01*
X015076Y004109D01*
X015076Y004252D01*
X015004Y004324D01*
X014861Y004324D01*
X014789Y004252D01*
X014789Y004109D01*
X015249Y004037D02*
X015249Y004324D01*
X015465Y004324D01*
X015536Y004252D01*
X015536Y004037D01*
X014554Y004324D02*
X014482Y004324D01*
X014309Y004252D02*
X014022Y004252D01*
X013787Y004324D02*
X013715Y004324D01*
X013787Y004324D02*
X013787Y004037D01*
X013858Y004037D02*
X013715Y004037D01*
X013551Y004037D02*
X013408Y004037D01*
X013480Y004037D02*
X013480Y004467D01*
X013408Y004467D01*
X013787Y004467D02*
X013787Y004539D01*
D13*
X013016Y003000D02*
X012496Y003000D01*
X012496Y001880D01*
X013016Y001880D01*
X013016Y003000D01*
X011130Y002815D02*
X010570Y002815D01*
X010570Y002315D02*
X011130Y002315D01*
X018695Y003323D02*
X018695Y004783D01*
X020755Y004783D02*
X020755Y003323D01*
X020020Y002298D02*
X019680Y002298D01*
X019680Y002018D02*
X020020Y002018D01*
D14*
X020743Y003296D02*
X018690Y003296D01*
X018688Y003596D02*
X020743Y003596D01*
X020743Y004796D02*
X018710Y004796D01*
D15*
X018677Y005728D02*
X018823Y005728D01*
X018871Y005777D01*
X018871Y005970D01*
X018823Y006019D01*
X018677Y006019D01*
X018677Y005728D01*
X018972Y005777D02*
X019020Y005728D01*
X019117Y005728D01*
X019166Y005777D01*
X019166Y005825D01*
X019117Y005873D01*
X019020Y005873D01*
X018972Y005922D01*
X018972Y005970D01*
X019020Y006019D01*
X019117Y006019D01*
X019166Y005970D01*
X019267Y005922D02*
X019363Y006019D01*
X019363Y005728D01*
X019267Y005728D02*
X019460Y005728D01*
X019561Y005777D02*
X019561Y005825D01*
X019610Y005873D01*
X019707Y005873D01*
X019755Y005825D01*
X019755Y005777D01*
X019707Y005728D01*
X019610Y005728D01*
X019561Y005777D01*
X019610Y005873D02*
X019561Y005922D01*
X019561Y005970D01*
X019610Y006019D01*
X019707Y006019D01*
X019755Y005970D01*
X019755Y005922D01*
X019707Y005873D01*
X019856Y005873D02*
X020001Y005873D01*
X020050Y005825D01*
X020050Y005777D01*
X020001Y005728D01*
X019856Y005728D01*
X019856Y006019D01*
X020001Y006019D01*
X020050Y005970D01*
X020050Y005922D01*
X020001Y005873D01*
X020151Y005970D02*
X020199Y006019D01*
X020296Y006019D01*
X020344Y005970D01*
X020344Y005922D01*
X020151Y005728D01*
X020344Y005728D01*
X020445Y005777D02*
X020639Y005970D01*
X020639Y005777D01*
X020590Y005728D01*
X020494Y005728D01*
X020445Y005777D01*
X020445Y005970D01*
X020494Y006019D01*
X020590Y006019D01*
X020639Y005970D01*
D16*
X020100Y002158D03*
X019600Y002158D03*
D17*
X021291Y002211D02*
X021291Y001991D01*
X021291Y002064D02*
X021401Y002064D01*
X021438Y002101D01*
X021438Y002174D01*
X021401Y002211D01*
X021291Y002211D01*
X021512Y002101D02*
X021659Y002101D01*
X021733Y002138D02*
X021806Y002211D01*
X021806Y001991D01*
X021733Y001991D02*
X021880Y001991D01*
X021622Y001991D02*
X021622Y002211D01*
X021512Y002101D01*
X021438Y001991D02*
X021364Y002064D01*
X021897Y002981D02*
X021970Y002981D01*
X022007Y003018D01*
X022081Y003091D02*
X022228Y003091D01*
X022302Y003164D02*
X022339Y003201D01*
X022412Y003201D01*
X022449Y003164D01*
X022449Y003128D01*
X022302Y002981D01*
X022449Y002981D01*
X022191Y002981D02*
X022191Y003201D01*
X022081Y003091D01*
X022007Y003164D02*
X021970Y003201D01*
X021897Y003201D01*
X021860Y003164D01*
X021860Y003018D01*
X021897Y002981D01*
X013067Y003695D02*
X012920Y003695D01*
X013030Y003805D01*
X013030Y003585D01*
X012846Y003585D02*
X012699Y003585D01*
X012773Y003585D02*
X012773Y003805D01*
X012699Y003731D01*
X012625Y003768D02*
X012625Y003621D01*
X012588Y003585D01*
X012515Y003585D01*
X012478Y003621D01*
X012478Y003768D01*
X012515Y003805D01*
X012588Y003805D01*
X012625Y003768D01*
X012552Y003658D02*
X012625Y003585D01*
X010848Y003299D02*
X010848Y003263D01*
X010812Y003226D01*
X010848Y003189D01*
X010848Y003153D01*
X010812Y003116D01*
X010738Y003116D01*
X010702Y003153D01*
X010627Y003116D02*
X010481Y003116D01*
X010554Y003116D02*
X010554Y003336D01*
X010481Y003263D01*
X010406Y003299D02*
X010406Y003226D01*
X010370Y003189D01*
X010260Y003189D01*
X010333Y003189D02*
X010406Y003116D01*
X010260Y003116D02*
X010260Y003336D01*
X010370Y003336D01*
X010406Y003299D01*
X010702Y003299D02*
X010738Y003336D01*
X010812Y003336D01*
X010848Y003299D01*
X010812Y003226D02*
X010775Y003226D01*
D18*
X021305Y003298D02*
X021305Y003018D01*
X021640Y003018D02*
X021640Y003298D01*
D19*
X021473Y003387D03*
X021473Y002927D03*
D20*
X006050Y002083D02*
X000850Y002083D01*
X000850Y006483D01*
X006050Y006483D01*
X006050Y002083D01*
X022650Y002083D02*
X022650Y006483D01*
X027850Y006483D01*
X027850Y002083D01*
X022650Y002083D01*
D21*
X013151Y002070D03*
X012361Y002440D03*
X013151Y002810D03*
D22*
X011190Y002565D03*
X010510Y002565D03*
M02*
