%
M48
M72
T01C0.0157
T02C0.0354
T03C0.0669
%
T01
X991Y1393
X1256Y1393
X1256Y1658
X991Y1658
X584Y3861
X584Y4127
X6756Y5221
X8006Y5408
X8272Y5408
X8413Y6033
X8694Y6033
X8131Y6033
X7850Y6033
X7850Y6315
X8131Y6315
X8413Y6315
X8694Y6315
X10975Y7393
X10975Y7658
X13100Y6502
X14756Y7283
X15022Y7283
X15022Y7549
X14756Y7549
X16975Y7549
X17241Y7549
X17241Y7283
X16975Y7283
X21100Y7721
X22897Y7705
X23163Y7705
X23163Y7065
X23413Y7065
X22913Y7065
X22913Y6815
X23163Y6815
X23413Y6815
X27163Y6893
X27397Y6893
X27413Y7158
X27163Y7158
X20959Y5533
X20959Y5252
X21006Y4658
X19553Y3908
X19303Y3908
X19038Y3908
X18772Y3908
X18506Y3924
X18225Y3924
X17975Y3924
X17850Y3690
X18100Y3690
X18350Y3690
X17225Y2940
X17225Y2658
X17225Y2408
X17225Y2158
X16506Y2002
X16256Y2002
X16006Y2002
X15756Y2002
X15506Y2002
X15256Y2002
X15475Y2252
X15756Y2252
X16006Y2252
X16256Y2252
X13975Y2393
X13975Y2674
X13975Y2955
X13975Y3236
X13413Y3299
X13131Y3299
X12850Y3299
X12569Y3299
X11819Y3190
X11569Y3252
X11569Y3502
X11819Y3440
X11506Y3752
X11506Y4033
X11475Y4658
X11225Y4658
X11225Y4908
X11475Y4908
X11475Y5158
X11225Y5158
X17194Y4815
X17194Y4533
X21006Y3033
X22350Y2033
X24694Y1752
X27506Y1580
X27772Y1580
X27772Y1315
X27506Y1315
X21475Y1127
X21225Y1127
X21225Y877
X21475Y877
X13444Y1049
X13194Y1049
X13194Y1299
X13444Y1299
X9459Y1377
X9194Y1377
X9194Y1643
X9459Y1643
X4256Y6705
X4006Y6705
X4006Y6955
X4256Y6955
X3225Y7190
X3256Y7440
X3475Y7533
X3725Y7533
X3944Y7408
X4194Y7408
X4288Y7658
X4038Y7658
X3819Y7752
X3569Y7752
X3319Y7721
X3100Y7627
X2913Y7752
X2663Y7783
X2069Y7690
X1850Y7565
X2038Y6783
T02
X2350Y1283
X3350Y1283
X5350Y1283
X6350Y1283
X8350Y1283
X10350Y1283
X12350Y1283
X14350Y1283
X15350Y1283
X16350Y1283
X18350Y1283
X19350Y1283
X20350Y1283
X22350Y1283
X23350Y1283
X25350Y1283
X26350Y1283
T03
X26350Y4283
X2350Y4283
M30
